<svg xmlns="http://www.w3.org/2000/svg" version="1.1" xmlns:xlink="http://www.w3.org/1999/xlink" xmlns:svgjs="http://svgjs.dev/svgjs" width="1440" height="560" preserveAspectRatio="none" viewBox="0 0 1440 560"><g mask="url(&quot;#SvgjsMask1012&quot;)" fill="none"><rect width="1440" height="560" x="0" y="0" fill="rgba(240, 161, 65, 0.18)"></rect><path d="M-48.3 369.45L-48.3 369.45" stroke="rgba(221, 148, 60, 1)" stroke-width="1.5"></path><path d="M-48.3 369.45L51.76 399.26" stroke="rgba(221, 148, 60, 1)" stroke-width="1.5"></path><path d="M-48.3 369.45L-101.44 540.96" stroke="rgba(221, 148, 60, 1)" stroke-width="1.5"></path><path d="M-48.3 369.45L97.08 510.77" stroke="rgba(221, 148, 60, 1)" stroke-width="1.5"></path><path d="M-48.3 369.45L190.04 391.8" stroke="rgba(221, 148, 60, 1)" stroke-width="1.5"></path><path d="M-101.44 540.96L-101.44 540.96" stroke="rgba(221, 148, 60, 1)" stroke-width="1.5"></path><path d="M-101.44 540.96L-107.17 686.66" stroke="rgba(221, 148, 60, 1)" stroke-width="1.5"></path><path d="M-107.17 686.66L-107.17 686.66" stroke="rgba(221, 148, 60, 1)" stroke-width="1.5"></path><path d="M-107.17 686.66L52.59 700" stroke="rgba(221, 148, 60, 1)" stroke-width="1.5"></path><path d="M-107.17 686.66L97.08 510.77" stroke="rgba(221, 148, 60, 1)" stroke-width="1.5"></path><path d="M51.76 399.26L51.76 399.26" stroke="rgba(221, 148, 60, 1)" stroke-width="1.5"></path><path d="M51.76 399.26L97.08 510.77" stroke="rgba(221, 148, 60, 1)" stroke-width="1.5"></path><path d="M97.08 510.77L97.08 510.77" stroke="rgba(221, 148, 60, 1)" stroke-width="1.5"></path><path d="M97.08 510.77L232.53 531.11" stroke="rgba(221, 148, 60, 1)" stroke-width="1.5"></path><path d="M52.59 700L52.59 700" stroke="rgba(221, 148, 60, 1)" stroke-width="1.5"></path><path d="M52.59 700L238.46 672.53" stroke="rgba(221, 148, 60, 1)" stroke-width="1.5"></path><path d="M190.04 391.8L190.04 391.8" stroke="rgba(221, 148, 60, 1)" stroke-width="1.5"></path><path d="M190.04 391.8L51.76 399.26" stroke="rgba(221, 148, 60, 1)" stroke-width="1.5"></path><path d="M190.04 391.8L232.53 531.11" stroke="rgba(221, 148, 60, 1)" stroke-width="1.5"></path><path d="M190.04 391.8L97.08 510.77" stroke="rgba(221, 148, 60, 1)" stroke-width="1.5"></path><path d="M232.53 531.11L232.53 531.11" stroke="rgba(221, 148, 60, 1)" stroke-width="1.5"></path><path d="M232.53 531.11L238.46 672.53" stroke="rgba(221, 148, 60, 1)" stroke-width="1.5"></path><path d="M232.53 531.11L397.71 502.85" stroke="rgba(221, 148, 60, 1)" stroke-width="1.5"></path><path d="M238.46 672.53L238.46 672.53" stroke="rgba(221, 148, 60, 1)" stroke-width="1.5"></path><path d="M238.46 672.53L403.18 669.58" stroke="rgba(221, 148, 60, 1)" stroke-width="1.5"></path><path d="M397.71 502.85L397.71 502.85" stroke="rgba(221, 148, 60, 1)" stroke-width="1.5"></path><path d="M397.71 502.85L498.42 392.11" stroke="rgba(221, 148, 60, 1)" stroke-width="1.5"></path><path d="M397.71 502.85L551.49 552.34" stroke="rgba(221, 148, 60, 1)" stroke-width="1.5"></path><path d="M397.71 502.85L403.18 669.58" stroke="rgba(221, 148, 60, 1)" stroke-width="1.5"></path><path d="M403.18 669.58L403.18 669.58" stroke="rgba(221, 148, 60, 1)" stroke-width="1.5"></path><path d="M403.18 669.58L529.02 654.04" stroke="rgba(221, 148, 60, 1)" stroke-width="1.5"></path><path d="M403.18 669.58L551.49 552.34" stroke="rgba(221, 148, 60, 1)" stroke-width="1.5"></path><path d="M498.42 392.11L498.42 392.11" stroke="rgba(221, 148, 60, 1)" stroke-width="1.5"></path><path d="M498.42 392.11L651.07 374.47" stroke="rgba(221, 148, 60, 1)" stroke-width="1.5"></path><path d="M551.49 552.34L551.49 552.34" stroke="rgba(221, 148, 60, 1)" stroke-width="1.5"></path><path d="M551.49 552.34L529.02 654.04" stroke="rgba(221, 148, 60, 1)" stroke-width="1.5"></path><path d="M551.49 552.34L712.38 526.18" stroke="rgba(221, 148, 60, 1)" stroke-width="1.5"></path><path d="M551.49 552.34L498.42 392.11" stroke="rgba(221, 148, 60, 1)" stroke-width="1.5"></path><path d="M551.49 552.34L651.07 374.47" stroke="rgba(221, 148, 60, 1)" stroke-width="1.5"></path><path d="M529.02 654.04L529.02 654.04" stroke="rgba(221, 148, 60, 1)" stroke-width="1.5"></path><path d="M529.02 654.04L397.71 502.85" stroke="rgba(221, 148, 60, 1)" stroke-width="1.5"></path><path d="M529.02 654.04L712.38 526.18" stroke="rgba(221, 148, 60, 1)" stroke-width="1.5"></path><path d="M693.42 231.23L693.42 231.23" stroke="rgba(221, 148, 60, 1)" stroke-width="1.5"></path><path d="M693.42 231.23L824.48 228.03" stroke="rgba(221, 148, 60, 1)" stroke-width="1.5"></path><path d="M693.42 231.23L651.07 374.47" stroke="rgba(221, 148, 60, 1)" stroke-width="1.5"></path><path d="M693.42 231.23L798.35 362.27" stroke="rgba(221, 148, 60, 1)" stroke-width="1.5"></path><path d="M651.07 374.47L651.07 374.47" stroke="rgba(221, 148, 60, 1)" stroke-width="1.5"></path><path d="M651.07 374.47L798.35 362.27" stroke="rgba(221, 148, 60, 1)" stroke-width="1.5"></path><path d="M712.38 526.18L712.38 526.18" stroke="rgba(221, 148, 60, 1)" stroke-width="1.5"></path><path d="M712.38 526.18L790.08 525.74" stroke="rgba(221, 148, 60, 1)" stroke-width="1.5"></path><path d="M712.38 526.18L651.07 374.47" stroke="rgba(221, 148, 60, 1)" stroke-width="1.5"></path><path d="M712.38 526.18L824.93 666.12" stroke="rgba(221, 148, 60, 1)" stroke-width="1.5"></path><path d="M712.38 526.18L798.35 362.27" stroke="rgba(221, 148, 60, 1)" stroke-width="1.5"></path><path d="M824.48 228.03L824.48 228.03" stroke="rgba(221, 148, 60, 1)" stroke-width="1.5"></path><path d="M824.48 228.03L947.74 213.9" stroke="rgba(221, 148, 60, 1)" stroke-width="1.5"></path><path d="M824.48 228.03L798.35 362.27" stroke="rgba(221, 148, 60, 1)" stroke-width="1.5"></path><path d="M824.48 228.03L942.9 90.31" stroke="rgba(221, 148, 60, 1)" stroke-width="1.5"></path><path d="M798.35 362.27L798.35 362.27" stroke="rgba(221, 148, 60, 1)" stroke-width="1.5"></path><path d="M798.35 362.27L790.08 525.74" stroke="rgba(221, 148, 60, 1)" stroke-width="1.5"></path><path d="M798.35 362.27L947.74 213.9" stroke="rgba(221, 148, 60, 1)" stroke-width="1.5"></path><path d="M790.08 525.74L790.08 525.74" stroke="rgba(221, 148, 60, 1)" stroke-width="1.5"></path><path d="M790.08 525.74L824.93 666.12" stroke="rgba(221, 148, 60, 1)" stroke-width="1.5"></path><path d="M790.08 525.74L986.58 546.88" stroke="rgba(221, 148, 60, 1)" stroke-width="1.5"></path><path d="M824.93 666.12L824.93 666.12" stroke="rgba(221, 148, 60, 1)" stroke-width="1.5"></path><path d="M824.93 666.12L1009.61 704.73" stroke="rgba(221, 148, 60, 1)" stroke-width="1.5"></path><path d="M824.93 666.12L986.58 546.88" stroke="rgba(221, 148, 60, 1)" stroke-width="1.5"></path><path d="M824.93 666.12L1103.91 700.18" stroke="rgba(221, 148, 60, 1)" stroke-width="1.5"></path><path d="M824.93 666.12L529.02 654.04" stroke="rgba(221, 148, 60, 1)" stroke-width="1.5"></path><path d="M1003 -96.65L1003 -96.65" stroke="rgba(221, 148, 60, 1)" stroke-width="1.5"></path><path d="M1003 -96.65L1160.85 -91.02" stroke="rgba(221, 148, 60, 1)" stroke-width="1.5"></path><path d="M1003 -96.65L942.9 90.31" stroke="rgba(221, 148, 60, 1)" stroke-width="1.5"></path><path d="M1003 -96.65L1158.04 109.93" stroke="rgba(221, 148, 60, 1)" stroke-width="1.5"></path><path d="M1003 -96.65L947.74 213.9" stroke="rgba(221, 148, 60, 1)" stroke-width="1.5"></path><path d="M942.9 90.31L942.9 90.31" stroke="rgba(221, 148, 60, 1)" stroke-width="1.5"></path><path d="M942.9 90.31L947.74 213.9" stroke="rgba(221, 148, 60, 1)" stroke-width="1.5"></path><path d="M947.74 213.9L947.74 213.9" stroke="rgba(221, 148, 60, 1)" stroke-width="1.5"></path><path d="M1009.33 378.08L1009.33 378.08" stroke="rgba(221, 148, 60, 1)" stroke-width="1.5"></path><path d="M1009.33 378.08L1158.43 348.44" stroke="rgba(221, 148, 60, 1)" stroke-width="1.5"></path><path d="M1009.33 378.08L1120.81 255.59" stroke="rgba(221, 148, 60, 1)" stroke-width="1.5"></path><path d="M1009.33 378.08L986.58 546.88" stroke="rgba(221, 148, 60, 1)" stroke-width="1.5"></path><path d="M1009.33 378.08L947.74 213.9" stroke="rgba(221, 148, 60, 1)" stroke-width="1.5"></path><path d="M1009.33 378.08L1143.68 533.48" stroke="rgba(221, 148, 60, 1)" stroke-width="1.5"></path><path d="M986.58 546.88L986.58 546.88" stroke="rgba(221, 148, 60, 1)" stroke-width="1.5"></path><path d="M986.58 546.88L1143.68 533.48" stroke="rgba(221, 148, 60, 1)" stroke-width="1.5"></path><path d="M986.58 546.88L1009.61 704.73" stroke="rgba(221, 148, 60, 1)" stroke-width="1.5"></path><path d="M1009.61 704.73L1009.61 704.73" stroke="rgba(221, 148, 60, 1)" stroke-width="1.5"></path><path d="M1009.61 704.73L1103.91 700.18" stroke="rgba(221, 148, 60, 1)" stroke-width="1.5"></path><path d="M1160.85 -91.02L1160.85 -91.02" stroke="rgba(221, 148, 60, 1)" stroke-width="1.5"></path><path d="M1160.85 -91.02L1299.9 51.59" stroke="rgba(221, 148, 60, 1)" stroke-width="1.5"></path><path d="M1158.04 109.93L1158.04 109.93" stroke="rgba(221, 148, 60, 1)" stroke-width="1.5"></path><path d="M1158.04 109.93L1120.81 255.59" stroke="rgba(221, 148, 60, 1)" stroke-width="1.5"></path><path d="M1158.04 109.93L1299.9 51.59" stroke="rgba(221, 148, 60, 1)" stroke-width="1.5"></path><path d="M1120.81 255.59L1120.81 255.59" stroke="rgba(221, 148, 60, 1)" stroke-width="1.5"></path><path d="M1120.81 255.59L1158.43 348.44" stroke="rgba(221, 148, 60, 1)" stroke-width="1.5"></path><path d="M1120.81 255.59L947.74 213.9" stroke="rgba(221, 148, 60, 1)" stroke-width="1.5"></path><path d="M1120.81 255.59L1309.68 232.29" stroke="rgba(221, 148, 60, 1)" stroke-width="1.5"></path><path d="M1158.43 348.44L1158.43 348.44" stroke="rgba(221, 148, 60, 1)" stroke-width="1.5"></path><path d="M1158.43 348.44L1269.67 405.51" stroke="rgba(221, 148, 60, 1)" stroke-width="1.5"></path><path d="M1143.68 533.48L1143.68 533.48" stroke="rgba(221, 148, 60, 1)" stroke-width="1.5"></path><path d="M1143.68 533.48L1275.12 553.73" stroke="rgba(221, 148, 60, 1)" stroke-width="1.5"></path><path d="M1143.68 533.48L1103.91 700.18" stroke="rgba(221, 148, 60, 1)" stroke-width="1.5"></path><path d="M1143.68 533.48L1269.67 405.51" stroke="rgba(221, 148, 60, 1)" stroke-width="1.5"></path><path d="M1143.68 533.48L1158.43 348.44" stroke="rgba(221, 148, 60, 1)" stroke-width="1.5"></path><path d="M1143.68 533.48L1270.23 671.79" stroke="rgba(221, 148, 60, 1)" stroke-width="1.5"></path><path d="M1103.91 700.18L1103.91 700.18" stroke="rgba(221, 148, 60, 1)" stroke-width="1.5"></path><path d="M1103.91 700.18L1270.23 671.79" stroke="rgba(221, 148, 60, 1)" stroke-width="1.5"></path><path d="M1299.9 51.59L1299.9 51.59" stroke="rgba(221, 148, 60, 1)" stroke-width="1.5"></path><path d="M1299.9 51.59L1394.83 102.79" stroke="rgba(221, 148, 60, 1)" stroke-width="1.5"></path><path d="M1309.68 232.29L1309.68 232.29" stroke="rgba(221, 148, 60, 1)" stroke-width="1.5"></path><path d="M1309.68 232.29L1460.15 256.1" stroke="rgba(221, 148, 60, 1)" stroke-width="1.5"></path><path d="M1309.68 232.29L1394.51 360.22" stroke="rgba(221, 148, 60, 1)" stroke-width="1.5"></path><path d="M1309.68 232.29L1394.83 102.79" stroke="rgba(221, 148, 60, 1)" stroke-width="1.5"></path><path d="M1309.68 232.29L1269.67 405.51" stroke="rgba(221, 148, 60, 1)" stroke-width="1.5"></path><path d="M1269.67 405.51L1269.67 405.51" stroke="rgba(221, 148, 60, 1)" stroke-width="1.5"></path><path d="M1269.67 405.51L1394.51 360.22" stroke="rgba(221, 148, 60, 1)" stroke-width="1.5"></path><path d="M1269.67 405.51L1275.12 553.73" stroke="rgba(221, 148, 60, 1)" stroke-width="1.5"></path><path d="M1275.12 553.73L1275.12 553.73" stroke="rgba(221, 148, 60, 1)" stroke-width="1.5"></path><path d="M1275.12 553.73L1270.23 671.79" stroke="rgba(221, 148, 60, 1)" stroke-width="1.5"></path><path d="M1275.12 553.73L1396.97 520.43" stroke="rgba(221, 148, 60, 1)" stroke-width="1.5"></path><path d="M1270.23 671.79L1270.23 671.79" stroke="rgba(221, 148, 60, 1)" stroke-width="1.5"></path><path d="M1270.23 671.79L1443.32 649.68" stroke="rgba(221, 148, 60, 1)" stroke-width="1.5"></path><path d="M1425.27 -40.48L1425.27 -40.48" stroke="rgba(221, 148, 60, 1)" stroke-width="1.5"></path><path d="M1425.27 -40.48L1540.24 50.12" stroke="rgba(221, 148, 60, 1)" stroke-width="1.5"></path><path d="M1425.27 -40.48L1394.83 102.79" stroke="rgba(221, 148, 60, 1)" stroke-width="1.5"></path><path d="M1425.27 -40.48L1299.9 51.59" stroke="rgba(221, 148, 60, 1)" stroke-width="1.5"></path><path d="M1425.27 -40.48L1594.01 -99.27" stroke="rgba(221, 148, 60, 1)" stroke-width="1.5"></path><path d="M1394.83 102.79L1394.83 102.79" stroke="rgba(221, 148, 60, 1)" stroke-width="1.5"></path><path d="M1394.83 102.79L1540.24 50.12" stroke="rgba(221, 148, 60, 1)" stroke-width="1.5"></path><path d="M1394.83 102.79L1460.15 256.1" stroke="rgba(221, 148, 60, 1)" stroke-width="1.5"></path><path d="M1460.15 256.1L1460.15 256.1" stroke="rgba(221, 148, 60, 1)" stroke-width="1.5"></path><path d="M1460.15 256.1L1567.24 197.87" stroke="rgba(221, 148, 60, 1)" stroke-width="1.5"></path><path d="M1460.15 256.1L1394.51 360.22" stroke="rgba(221, 148, 60, 1)" stroke-width="1.5"></path><path d="M1394.51 360.22L1394.51 360.22" stroke="rgba(221, 148, 60, 1)" stroke-width="1.5"></path><path d="M1394.51 360.22L1542.42 382.03" stroke="rgba(221, 148, 60, 1)" stroke-width="1.5"></path><path d="M1396.97 520.43L1396.97 520.43" stroke="rgba(221, 148, 60, 1)" stroke-width="1.5"></path><path d="M1396.97 520.43L1443.32 649.68" stroke="rgba(221, 148, 60, 1)" stroke-width="1.5"></path><path d="M1396.97 520.43L1394.51 360.22" stroke="rgba(221, 148, 60, 1)" stroke-width="1.5"></path><path d="M1396.97 520.43L1269.67 405.51" stroke="rgba(221, 148, 60, 1)" stroke-width="1.5"></path><path d="M1443.32 649.68L1443.32 649.68" stroke="rgba(221, 148, 60, 1)" stroke-width="1.5"></path><path d="M1594.01 -99.27L1594.01 -99.27" stroke="rgba(221, 148, 60, 1)" stroke-width="1.5"></path><path d="M1594.01 -99.27L1540.24 50.12" stroke="rgba(221, 148, 60, 1)" stroke-width="1.5"></path><path d="M1594.01 -99.27L1394.83 102.79" stroke="rgba(221, 148, 60, 1)" stroke-width="1.5"></path><path d="M1594.01 -99.27L1567.24 197.87" stroke="rgba(221, 148, 60, 1)" stroke-width="1.5"></path><path d="M1594.01 -99.27L1299.9 51.59" stroke="rgba(221, 148, 60, 1)" stroke-width="1.5"></path><path d="M1540.24 50.12L1540.24 50.12" stroke="rgba(221, 148, 60, 1)" stroke-width="1.5"></path><path d="M1540.24 50.12L1567.24 197.87" stroke="rgba(221, 148, 60, 1)" stroke-width="1.5"></path><path d="M1540.24 50.12L1460.15 256.1" stroke="rgba(221, 148, 60, 1)" stroke-width="1.5"></path><path d="M1540.24 50.12L1299.9 51.59" stroke="rgba(221, 148, 60, 1)" stroke-width="1.5"></path><path d="M1567.24 197.87L1567.24 197.87" stroke="rgba(221, 148, 60, 1)" stroke-width="1.5"></path><path d="M1567.24 197.87L1542.42 382.03" stroke="rgba(221, 148, 60, 1)" stroke-width="1.5"></path><path d="M1567.24 197.87L1394.83 102.79" stroke="rgba(221, 148, 60, 1)" stroke-width="1.5"></path><path d="M1567.24 197.87L1394.51 360.22" stroke="rgba(221, 148, 60, 1)" stroke-width="1.5"></path><path d="M1567.24 197.87L1309.68 232.29" stroke="rgba(221, 148, 60, 1)" stroke-width="1.5"></path><path d="M1542.42 382.03L1542.42 382.03" stroke="rgba(221, 148, 60, 1)" stroke-width="1.5"></path><path d="M1542.42 382.03L1605.47 495.05" stroke="rgba(221, 148, 60, 1)" stroke-width="1.5"></path><path d="M1542.42 382.03L1460.15 256.1" stroke="rgba(221, 148, 60, 1)" stroke-width="1.5"></path><path d="M1605.47 495.05L1605.47 495.05" stroke="rgba(221, 148, 60, 1)" stroke-width="1.5"></path><path d="M1605.47 495.05L1396.97 520.43" stroke="rgba(221, 148, 60, 1)" stroke-width="1.5"></path><path d="M1605.47 495.05L1443.32 649.68" stroke="rgba(221, 148, 60, 1)" stroke-width="1.5"></path><path d="M1605.47 495.05L1394.51 360.22" stroke="rgba(221, 148, 60, 1)" stroke-width="1.5"></path><path d="M1605.47 495.05L1460.15 256.1" stroke="rgba(221, 148, 60, 1)" stroke-width="1.5"></path><circle r="5" cx="-48.3" cy="369.45" fill="rgba(221, 148, 60, 1)"></circle><circle r="5" cx="-101.44" cy="540.96" fill="rgba(221, 148, 60, 1)"></circle><circle r="5" cx="-107.17" cy="686.66" fill="rgba(221, 148, 60, 1)"></circle><circle r="5" cx="51.76" cy="399.26" fill="rgba(221, 148, 60, 1)"></circle><circle r="5" cx="97.08" cy="510.77" fill="rgba(221, 148, 60, 1)"></circle><circle r="5" cx="52.59" cy="700" fill="rgba(221, 148, 60, 1)"></circle><circle r="5" cx="190.04" cy="391.8" fill="rgba(221, 148, 60, 1)"></circle><circle r="5" cx="232.53" cy="531.11" fill="rgba(221, 148, 60, 1)"></circle><circle r="5" cx="238.46" cy="672.53" fill="rgba(221, 148, 60, 1)"></circle><circle r="5" cx="397.71" cy="502.85" fill="rgba(221, 148, 60, 1)"></circle><circle r="5" cx="403.18" cy="669.58" fill="rgba(221, 148, 60, 1)"></circle><circle r="5" cx="498.42" cy="392.11" fill="rgba(221, 148, 60, 1)"></circle><circle r="5" cx="551.49" cy="552.34" fill="rgba(221, 148, 60, 1)"></circle><circle r="5" cx="529.02" cy="654.04" fill="rgba(221, 148, 60, 1)"></circle><circle r="5" cx="693.42" cy="231.23" fill="rgba(221, 148, 60, 1)"></circle><circle r="5" cx="651.07" cy="374.47" fill="rgba(221, 148, 60, 1)"></circle><circle r="5" cx="712.38" cy="526.18" fill="rgba(221, 148, 60, 1)"></circle><circle r="5" cx="824.48" cy="228.03" fill="rgba(221, 148, 60, 1)"></circle><circle r="5" cx="798.35" cy="362.27" fill="rgba(221, 148, 60, 1)"></circle><circle r="5" cx="790.08" cy="525.74" fill="rgba(221, 148, 60, 1)"></circle><circle r="5" cx="824.93" cy="666.12" fill="rgba(221, 148, 60, 1)"></circle><circle r="5" cx="1003" cy="-96.65" fill="rgba(221, 148, 60, 1)"></circle><circle r="5" cx="942.9" cy="90.31" fill="rgba(221, 148, 60, 1)"></circle><circle r="5" cx="947.74" cy="213.9" fill="rgba(221, 148, 60, 1)"></circle><circle r="5" cx="1009.33" cy="378.08" fill="rgba(221, 148, 60, 1)"></circle><circle r="5" cx="986.58" cy="546.88" fill="rgba(221, 148, 60, 1)"></circle><circle r="5" cx="1009.61" cy="704.73" fill="rgba(221, 148, 60, 1)"></circle><circle r="5" cx="1160.85" cy="-91.02" fill="rgba(221, 148, 60, 1)"></circle><circle r="5" cx="1158.04" cy="109.93" fill="rgba(221, 148, 60, 1)"></circle><circle r="5" cx="1120.81" cy="255.59" fill="rgba(221, 148, 60, 1)"></circle><circle r="5" cx="1158.43" cy="348.44" fill="rgba(221, 148, 60, 1)"></circle><circle r="5" cx="1143.68" cy="533.48" fill="rgba(221, 148, 60, 1)"></circle><circle r="5" cx="1103.91" cy="700.18" fill="rgba(221, 148, 60, 1)"></circle><circle r="5" cx="1299.9" cy="51.59" fill="rgba(221, 148, 60, 1)"></circle><circle r="5" cx="1309.68" cy="232.29" fill="rgba(221, 148, 60, 1)"></circle><circle r="5" cx="1269.67" cy="405.51" fill="rgba(221, 148, 60, 1)"></circle><circle r="5" cx="1275.12" cy="553.73" fill="rgba(221, 148, 60, 1)"></circle><circle r="5" cx="1270.23" cy="671.79" fill="rgba(221, 148, 60, 1)"></circle><circle r="5" cx="1425.27" cy="-40.48" fill="rgba(221, 148, 60, 1)"></circle><circle r="5" cx="1394.83" cy="102.79" fill="rgba(221, 148, 60, 1)"></circle><circle r="5" cx="1460.15" cy="256.1" fill="rgba(221, 148, 60, 1)"></circle><circle r="5" cx="1394.51" cy="360.22" fill="rgba(221, 148, 60, 1)"></circle><circle r="5" cx="1396.97" cy="520.43" fill="rgba(221, 148, 60, 1)"></circle><circle r="5" cx="1443.32" cy="649.68" fill="rgba(221, 148, 60, 1)"></circle><circle r="5" cx="1594.01" cy="-99.27" fill="rgba(221, 148, 60, 1)"></circle><circle r="5" cx="1540.24" cy="50.12" fill="rgba(221, 148, 60, 1)"></circle><circle r="5" cx="1567.24" cy="197.87" fill="rgba(221, 148, 60, 1)"></circle><circle r="5" cx="1542.42" cy="382.03" fill="rgba(221, 148, 60, 1)"></circle><circle r="5" cx="1605.47" cy="495.05" fill="rgba(221, 148, 60, 1)"></circle><path d="M81.15 639.74L81.15 639.74" stroke="hsl(32.89999999999998, 85.4%, 77.7%)" stroke-width="1.5"></path><path d="M81.15 639.74L60.58 556.2" stroke="hsl(32.89999999999998, 85.4%, 77.7%)" stroke-width="1.5"></path><path d="M81.15 639.74L-41.96 637.51" stroke="hsl(32.89999999999998, 85.4%, 77.7%)" stroke-width="1.5"></path><path d="M81.15 639.74L210.61 549.31" stroke="hsl(32.89999999999998, 85.4%, 77.7%)" stroke-width="1.5"></path><path d="M81.15 639.74L240.5 642.61" stroke="hsl(32.89999999999998, 85.4%, 77.7%)" stroke-width="1.5"></path><path d="M81.15 639.74L-85.49 532.36" stroke="hsl(32.89999999999998, 85.4%, 77.7%)" stroke-width="1.5"></path><path d="M81.15 639.74L400.36 529.63" stroke="hsl(32.89999999999998, 85.4%, 77.7%)" stroke-width="1.5"></path><path d="M400.36 529.63L400.36 529.63" stroke="hsl(32.89999999999998, 85.4%, 77.7%)" stroke-width="1.5"></path><path d="M400.36 529.63L513.52 545.35" stroke="hsl(32.89999999999998, 85.4%, 77.7%)" stroke-width="1.5"></path><path d="M400.36 529.63L497.17 642.5" stroke="hsl(32.89999999999998, 85.4%, 77.7%)" stroke-width="1.5"></path><path d="M400.36 529.63L210.61 549.31" stroke="hsl(32.89999999999998, 85.4%, 77.7%)" stroke-width="1.5"></path><path d="M400.36 529.63L240.5 642.61" stroke="hsl(32.89999999999998, 85.4%, 77.7%)" stroke-width="1.5"></path><path d="M400.36 529.63L658.37 494.31" stroke="hsl(32.89999999999998, 85.4%, 77.7%)" stroke-width="1.5"></path><path d="M400.36 529.63L676.03 674.87" stroke="hsl(32.89999999999998, 85.4%, 77.7%)" stroke-width="1.5"></path><path d="M513.52 545.35L513.52 545.35" stroke="hsl(32.89999999999998, 85.4%, 77.7%)" stroke-width="1.5"></path><path d="M513.52 545.35L497.17 642.5" stroke="hsl(32.89999999999998, 85.4%, 77.7%)" stroke-width="1.5"></path><path d="M513.52 545.35L658.37 494.31" stroke="hsl(32.89999999999998, 85.4%, 77.7%)" stroke-width="1.5"></path><path d="M513.52 545.35L676.03 674.87" stroke="hsl(32.89999999999998, 85.4%, 77.7%)" stroke-width="1.5"></path><path d="M513.52 545.35L240.5 642.61" stroke="hsl(32.89999999999998, 85.4%, 77.7%)" stroke-width="1.5"></path><path d="M1304.1 355.66L1304.1 355.66" stroke="hsl(32.89999999999998, 85.4%, 77.7%)" stroke-width="1.5"></path><path d="M1304.1 355.66L1394.39 390.49" stroke="hsl(32.89999999999998, 85.4%, 77.7%)" stroke-width="1.5"></path><path d="M1304.1 355.66L1267.18 498.68" stroke="hsl(32.89999999999998, 85.4%, 77.7%)" stroke-width="1.5"></path><path d="M1304.1 355.66L1126.66 341.79" stroke="hsl(32.89999999999998, 85.4%, 77.7%)" stroke-width="1.5"></path><path d="M1304.1 355.66L1140.12 239.3" stroke="hsl(32.89999999999998, 85.4%, 77.7%)" stroke-width="1.5"></path><path d="M1540.87 60.68L1540.87 60.68" stroke="hsl(32.89999999999998, 85.4%, 77.7%)" stroke-width="1.5"></path><path d="M1540.87 60.68L1437.71 55.87" stroke="hsl(32.89999999999998, 85.4%, 77.7%)" stroke-width="1.5"></path><path d="M1554.26 704.59L1554.26 704.59" stroke="hsl(32.89999999999998, 85.4%, 77.7%)" stroke-width="1.5"></path><path d="M1554.26 704.59L1412.99 650.45" stroke="hsl(32.89999999999998, 85.4%, 77.7%)" stroke-width="1.5"></path><path d="M1554.26 704.59L1449.99 538.67" stroke="hsl(32.89999999999998, 85.4%, 77.7%)" stroke-width="1.5"></path><path d="M1554.26 704.59L1589.17 500.34" stroke="hsl(32.89999999999998, 85.4%, 77.7%)" stroke-width="1.5"></path><path d="M1554.26 704.59L1304.52 708.42" stroke="hsl(32.89999999999998, 85.4%, 77.7%)" stroke-width="1.5"></path><path d="M1554.26 704.59L1563.78 354.09" stroke="hsl(32.89999999999998, 85.4%, 77.7%)" stroke-width="1.5"></path><path d="M1554.26 704.59L1394.39 390.49" stroke="hsl(32.89999999999998, 85.4%, 77.7%)" stroke-width="1.5"></path><path d="M-85.49 532.36L-85.49 532.36" stroke="hsl(32.89999999999998, 85.4%, 77.7%)" stroke-width="1.5"></path><path d="M-85.49 532.36L-41.96 637.51" stroke="hsl(32.89999999999998, 85.4%, 77.7%)" stroke-width="1.5"></path><path d="M-85.49 532.36L60.58 556.2" stroke="hsl(32.89999999999998, 85.4%, 77.7%)" stroke-width="1.5"></path><path d="M-85.49 532.36L210.61 549.31" stroke="hsl(32.89999999999998, 85.4%, 77.7%)" stroke-width="1.5"></path><path d="M-85.49 532.36L240.5 642.61" stroke="hsl(32.89999999999998, 85.4%, 77.7%)" stroke-width="1.5"></path><path d="M-85.49 532.36L400.36 529.63" stroke="hsl(32.89999999999998, 85.4%, 77.7%)" stroke-width="1.5"></path><path d="M-41.96 637.51L-41.96 637.51" stroke="hsl(32.89999999999998, 85.4%, 77.7%)" stroke-width="1.5"></path><path d="M-41.96 637.51L60.58 556.2" stroke="hsl(32.89999999999998, 85.4%, 77.7%)" stroke-width="1.5"></path><path d="M-41.96 637.51L210.61 549.31" stroke="hsl(32.89999999999998, 85.4%, 77.7%)" stroke-width="1.5"></path><path d="M-41.96 637.51L240.5 642.61" stroke="hsl(32.89999999999998, 85.4%, 77.7%)" stroke-width="1.5"></path><path d="M60.58 556.2L60.58 556.2" stroke="hsl(32.89999999999998, 85.4%, 77.7%)" stroke-width="1.5"></path><path d="M210.61 549.31L210.61 549.31" stroke="hsl(32.89999999999998, 85.4%, 77.7%)" stroke-width="1.5"></path><path d="M210.61 549.31L240.5 642.61" stroke="hsl(32.89999999999998, 85.4%, 77.7%)" stroke-width="1.5"></path><path d="M210.61 549.31L60.58 556.2" stroke="hsl(32.89999999999998, 85.4%, 77.7%)" stroke-width="1.5"></path><path d="M240.5 642.61L240.5 642.61" stroke="hsl(32.89999999999998, 85.4%, 77.7%)" stroke-width="1.5"></path><path d="M497.17 642.5L497.17 642.5" stroke="hsl(32.89999999999998, 85.4%, 77.7%)" stroke-width="1.5"></path><path d="M658.37 494.31L658.37 494.31" stroke="hsl(32.89999999999998, 85.4%, 77.7%)" stroke-width="1.5"></path><path d="M658.37 494.31L825.83 555.17" stroke="hsl(32.89999999999998, 85.4%, 77.7%)" stroke-width="1.5"></path><path d="M676.03 674.87L676.03 674.87" stroke="hsl(32.89999999999998, 85.4%, 77.7%)" stroke-width="1.5"></path><path d="M676.03 674.87L799.91 710.36" stroke="hsl(32.89999999999998, 85.4%, 77.7%)" stroke-width="1.5"></path><path d="M676.03 674.87L658.37 494.31" stroke="hsl(32.89999999999998, 85.4%, 77.7%)" stroke-width="1.5"></path><path d="M676.03 674.87L497.17 642.5" stroke="hsl(32.89999999999998, 85.4%, 77.7%)" stroke-width="1.5"></path><path d="M676.03 674.87L825.83 555.17" stroke="hsl(32.89999999999998, 85.4%, 77.7%)" stroke-width="1.5"></path><path d="M814.76 404.52L814.76 404.52" stroke="hsl(32.89999999999998, 85.4%, 77.7%)" stroke-width="1.5"></path><path d="M814.76 404.52L825.83 555.17" stroke="hsl(32.89999999999998, 85.4%, 77.7%)" stroke-width="1.5"></path><path d="M814.76 404.52L658.37 494.31" stroke="hsl(32.89999999999998, 85.4%, 77.7%)" stroke-width="1.5"></path><path d="M814.76 404.52L998.81 529.82" stroke="hsl(32.89999999999998, 85.4%, 77.7%)" stroke-width="1.5"></path><path d="M825.83 555.17L825.83 555.17" stroke="hsl(32.89999999999998, 85.4%, 77.7%)" stroke-width="1.5"></path><path d="M825.83 555.17L799.91 710.36" stroke="hsl(32.89999999999998, 85.4%, 77.7%)" stroke-width="1.5"></path><path d="M825.83 555.17L998.81 529.82" stroke="hsl(32.89999999999998, 85.4%, 77.7%)" stroke-width="1.5"></path><path d="M799.91 710.36L799.91 710.36" stroke="hsl(32.89999999999998, 85.4%, 77.7%)" stroke-width="1.5"></path><path d="M799.91 710.36L949.21 700.07" stroke="hsl(32.89999999999998, 85.4%, 77.7%)" stroke-width="1.5"></path><path d="M998.81 529.82L998.81 529.82" stroke="hsl(32.89999999999998, 85.4%, 77.7%)" stroke-width="1.5"></path><path d="M998.81 529.82L1113.62 544.85" stroke="hsl(32.89999999999998, 85.4%, 77.7%)" stroke-width="1.5"></path><path d="M949.21 700.07L949.21 700.07" stroke="hsl(32.89999999999998, 85.4%, 77.7%)" stroke-width="1.5"></path><path d="M949.21 700.07L998.81 529.82" stroke="hsl(32.89999999999998, 85.4%, 77.7%)" stroke-width="1.5"></path><path d="M1159.22 50.74L1159.22 50.74" stroke="hsl(32.89999999999998, 85.4%, 77.7%)" stroke-width="1.5"></path><path d="M1159.22 50.74L1242.84 87.61" stroke="hsl(32.89999999999998, 85.4%, 77.7%)" stroke-width="1.5"></path><path d="M1159.22 50.74L1248.37 -79.18" stroke="hsl(32.89999999999998, 85.4%, 77.7%)" stroke-width="1.5"></path><path d="M1159.22 50.74L1140.12 239.3" stroke="hsl(32.89999999999998, 85.4%, 77.7%)" stroke-width="1.5"></path><path d="M1159.22 50.74L1437.71 55.87" stroke="hsl(32.89999999999998, 85.4%, 77.7%)" stroke-width="1.5"></path><path d="M1140.12 239.3L1140.12 239.3" stroke="hsl(32.89999999999998, 85.4%, 77.7%)" stroke-width="1.5"></path><path d="M1140.12 239.3L1126.66 341.79" stroke="hsl(32.89999999999998, 85.4%, 77.7%)" stroke-width="1.5"></path><path d="M1126.66 341.79L1126.66 341.79" stroke="hsl(32.89999999999998, 85.4%, 77.7%)" stroke-width="1.5"></path><path d="M1113.62 544.85L1113.62 544.85" stroke="hsl(32.89999999999998, 85.4%, 77.7%)" stroke-width="1.5"></path><path d="M1113.62 544.85L1150.89 689.21" stroke="hsl(32.89999999999998, 85.4%, 77.7%)" stroke-width="1.5"></path><path d="M1113.62 544.85L1267.18 498.68" stroke="hsl(32.89999999999998, 85.4%, 77.7%)" stroke-width="1.5"></path><path d="M1113.62 544.85L1126.66 341.79" stroke="hsl(32.89999999999998, 85.4%, 77.7%)" stroke-width="1.5"></path><path d="M1113.62 544.85L949.21 700.07" stroke="hsl(32.89999999999998, 85.4%, 77.7%)" stroke-width="1.5"></path><path d="M1150.89 689.21L1150.89 689.21" stroke="hsl(32.89999999999998, 85.4%, 77.7%)" stroke-width="1.5"></path><path d="M1150.89 689.21L1304.52 708.42" stroke="hsl(32.89999999999998, 85.4%, 77.7%)" stroke-width="1.5"></path><path d="M1150.89 689.21L949.21 700.07" stroke="hsl(32.89999999999998, 85.4%, 77.7%)" stroke-width="1.5"></path><path d="M1150.89 689.21L998.81 529.82" stroke="hsl(32.89999999999998, 85.4%, 77.7%)" stroke-width="1.5"></path><path d="M1150.89 689.21L1267.18 498.68" stroke="hsl(32.89999999999998, 85.4%, 77.7%)" stroke-width="1.5"></path><path d="M1248.37 -79.18L1248.37 -79.18" stroke="hsl(32.89999999999998, 85.4%, 77.7%)" stroke-width="1.5"></path><path d="M1248.37 -79.18L1242.84 87.61" stroke="hsl(32.89999999999998, 85.4%, 77.7%)" stroke-width="1.5"></path><path d="M1242.84 87.61L1242.84 87.61" stroke="hsl(32.89999999999998, 85.4%, 77.7%)" stroke-width="1.5"></path><path d="M1242.84 87.61L1140.12 239.3" stroke="hsl(32.89999999999998, 85.4%, 77.7%)" stroke-width="1.5"></path><path d="M1242.84 87.61L1437.71 55.87" stroke="hsl(32.89999999999998, 85.4%, 77.7%)" stroke-width="1.5"></path><path d="M1242.84 87.61L1427.38 -41.12" stroke="hsl(32.89999999999998, 85.4%, 77.7%)" stroke-width="1.5"></path><path d="M1242.84 87.61L1304.1 355.66" stroke="hsl(32.89999999999998, 85.4%, 77.7%)" stroke-width="1.5"></path><path d="M1267.18 498.68L1267.18 498.68" stroke="hsl(32.89999999999998, 85.4%, 77.7%)" stroke-width="1.5"></path><path d="M1267.18 498.68L1394.39 390.49" stroke="hsl(32.89999999999998, 85.4%, 77.7%)" stroke-width="1.5"></path><path d="M1267.18 498.68L1449.99 538.67" stroke="hsl(32.89999999999998, 85.4%, 77.7%)" stroke-width="1.5"></path><path d="M1267.18 498.68L1412.99 650.45" stroke="hsl(32.89999999999998, 85.4%, 77.7%)" stroke-width="1.5"></path><path d="M1267.18 498.68L1126.66 341.79" stroke="hsl(32.89999999999998, 85.4%, 77.7%)" stroke-width="1.5"></path><path d="M1304.52 708.42L1304.52 708.42" stroke="hsl(32.89999999999998, 85.4%, 77.7%)" stroke-width="1.5"></path><path d="M1304.52 708.42L1412.99 650.45" stroke="hsl(32.89999999999998, 85.4%, 77.7%)" stroke-width="1.5"></path><path d="M1304.52 708.42L1267.18 498.68" stroke="hsl(32.89999999999998, 85.4%, 77.7%)" stroke-width="1.5"></path><path d="M1427.38 -41.12L1427.38 -41.12" stroke="hsl(32.89999999999998, 85.4%, 77.7%)" stroke-width="1.5"></path><path d="M1427.38 -41.12L1437.71 55.87" stroke="hsl(32.89999999999998, 85.4%, 77.7%)" stroke-width="1.5"></path><path d="M1427.38 -41.12L1540.87 60.68" stroke="hsl(32.89999999999998, 85.4%, 77.7%)" stroke-width="1.5"></path><path d="M1427.38 -41.12L1600.34 -58.67" stroke="hsl(32.89999999999998, 85.4%, 77.7%)" stroke-width="1.5"></path><path d="M1437.71 55.87L1437.71 55.87" stroke="hsl(32.89999999999998, 85.4%, 77.7%)" stroke-width="1.5"></path><path d="M1394.39 390.49L1394.39 390.49" stroke="hsl(32.89999999999998, 85.4%, 77.7%)" stroke-width="1.5"></path><path d="M1394.39 390.49L1449.99 538.67" stroke="hsl(32.89999999999998, 85.4%, 77.7%)" stroke-width="1.5"></path><path d="M1449.99 538.67L1449.99 538.67" stroke="hsl(32.89999999999998, 85.4%, 77.7%)" stroke-width="1.5"></path><path d="M1449.99 538.67L1412.99 650.45" stroke="hsl(32.89999999999998, 85.4%, 77.7%)" stroke-width="1.5"></path><path d="M1449.99 538.67L1589.17 500.34" stroke="hsl(32.89999999999998, 85.4%, 77.7%)" stroke-width="1.5"></path><path d="M1412.99 650.45L1412.99 650.45" stroke="hsl(32.89999999999998, 85.4%, 77.7%)" stroke-width="1.5"></path><path d="M1600.34 -58.67L1600.34 -58.67" stroke="hsl(32.89999999999998, 85.4%, 77.7%)" stroke-width="1.5"></path><path d="M1600.34 -58.67L1540.87 60.68" stroke="hsl(32.89999999999998, 85.4%, 77.7%)" stroke-width="1.5"></path><path d="M1600.34 -58.67L1437.71 55.87" stroke="hsl(32.89999999999998, 85.4%, 77.7%)" stroke-width="1.5"></path><path d="M1563.78 354.09L1563.78 354.09" stroke="hsl(32.89999999999998, 85.4%, 77.7%)" stroke-width="1.5"></path><path d="M1563.78 354.09L1589.17 500.34" stroke="hsl(32.89999999999998, 85.4%, 77.7%)" stroke-width="1.5"></path><path d="M1563.78 354.09L1394.39 390.49" stroke="hsl(32.89999999999998, 85.4%, 77.7%)" stroke-width="1.5"></path><path d="M1563.78 354.09L1449.99 538.67" stroke="hsl(32.89999999999998, 85.4%, 77.7%)" stroke-width="1.5"></path><path d="M1563.78 354.09L1304.1 355.66" stroke="hsl(32.89999999999998, 85.4%, 77.7%)" stroke-width="1.5"></path><path d="M1589.17 500.34L1589.17 500.34" stroke="hsl(32.89999999999998, 85.4%, 77.7%)" stroke-width="1.5"></path><circle r="25" cx="81.15" cy="639.74" fill="url(&quot;#SvgjsRadialGradient1013&quot;)"></circle><circle r="25" cx="400.36" cy="529.63" fill="url(&quot;#SvgjsRadialGradient1013&quot;)"></circle><circle r="25" cx="513.52" cy="545.35" fill="url(&quot;#SvgjsRadialGradient1013&quot;)"></circle><circle r="25" cx="1304.1" cy="355.66" fill="url(&quot;#SvgjsRadialGradient1013&quot;)"></circle><circle r="25" cx="1540.87" cy="60.68" fill="url(&quot;#SvgjsRadialGradient1013&quot;)"></circle><circle r="25" cx="1554.26" cy="704.59" fill="url(&quot;#SvgjsRadialGradient1013&quot;)"></circle><circle r="5" cx="-85.49" cy="532.36" fill="#f8d0a0"></circle><circle r="5" cx="-41.96" cy="637.51" fill="#f8d0a0"></circle><circle r="5" cx="60.58" cy="556.2" fill="#f8d0a0"></circle><circle r="5" cx="210.61" cy="549.31" fill="#f8d0a0"></circle><circle r="5" cx="240.5" cy="642.61" fill="#f8d0a0"></circle><circle r="5" cx="497.17" cy="642.5" fill="#f8d0a0"></circle><circle r="5" cx="658.37" cy="494.31" fill="#f8d0a0"></circle><circle r="5" cx="676.03" cy="674.87" fill="#f8d0a0"></circle><circle r="5" cx="814.76" cy="404.52" fill="#f8d0a0"></circle><circle r="5" cx="825.83" cy="555.17" fill="#f8d0a0"></circle><circle r="5" cx="799.91" cy="710.36" fill="#f8d0a0"></circle><circle r="5" cx="998.81" cy="529.82" fill="#f8d0a0"></circle><circle r="5" cx="949.21" cy="700.07" fill="#f8d0a0"></circle><circle r="5" cx="1159.22" cy="50.74" fill="#f8d0a0"></circle><circle r="5" cx="1140.12" cy="239.3" fill="#f8d0a0"></circle><circle r="5" cx="1126.66" cy="341.79" fill="#f8d0a0"></circle><circle r="5" cx="1113.62" cy="544.85" fill="#f8d0a0"></circle><circle r="5" cx="1150.89" cy="689.21" fill="#f8d0a0"></circle><circle r="5" cx="1248.37" cy="-79.18" fill="#f8d0a0"></circle><circle r="5" cx="1242.84" cy="87.61" fill="#f8d0a0"></circle><circle r="5" cx="1267.18" cy="498.68" fill="#f8d0a0"></circle><circle r="5" cx="1304.52" cy="708.42" fill="#f8d0a0"></circle><circle r="5" cx="1427.38" cy="-41.12" fill="#f8d0a0"></circle><circle r="5" cx="1437.71" cy="55.87" fill="#f8d0a0"></circle><circle r="5" cx="1394.39" cy="390.49" fill="#f8d0a0"></circle><circle r="5" cx="1449.99" cy="538.67" fill="#f8d0a0"></circle><circle r="5" cx="1412.99" cy="650.45" fill="#f8d0a0"></circle><circle r="5" cx="1600.34" cy="-58.67" fill="#f8d0a0"></circle><circle r="5" cx="1563.78" cy="354.09" fill="#f8d0a0"></circle><circle r="5" cx="1589.17" cy="500.34" fill="#f8d0a0"></circle></g><defs><mask id="SvgjsMask1012"><rect width="1440" height="560" fill="#ffffff"></rect></mask><radialGradient id="SvgjsRadialGradient1013"><stop stop-color="#ffffff" offset="0.1"></stop><stop stop-color="rgba(240, 161, 65, 1)" offset="0.2"></stop><stop stop-color="rgba(240, 161, 65, 0)" offset="1"></stop></radialGradient></defs></svg>